# xmcd
#
# Track frame offsets:
# 150
# 17983
# 33171
# 50046
# 62111
# 72245
# 86003
# 100355
# 115067
# 129140
# 142518
# 161634
# 174908
# 185461
# 197078
# 212983
# 223446
# 241802
# 257760
# 270948
# 285233
# 299485
# 314663
# 326575
# 342680
#
# Disc length: 4737 seconds
#
#
# Revision: 0
# Processed by: cddbd v1.5.1PL0 Copyright (c) Steve Scherf et al.
# Submitted via: FreeRIP 2.942 
#
DISCID=7f127f19
DTITLE=Chitãozinho and Xororó - As 25 Mais
DYEAR=1900
DGENRE=Country
TTITLE0=Amor Proibido
TTITLE1=Uma Casa de Caboclo
TTITLE2=Fogão de Lenha
TTITLE3=Revivendo
TTITLE4=Daria Tudo pra Você Ficar Comigo
TTITLE5=O Direito de Amar
TTITLE6=Metade de Alguém
TTITLE7=Galopeira
TTITLE8=Debaixo do Cobertor
TTITLE9=Gosto Amargo
TTITLE10=Eu Te Encontrei
TTITLE11=Fio de Cabelo
TTITLE12=Ciranda do Amor
TTITLE13=Baile do Adeus
TTITLE14=Minha Amiga
TTITLE15=Mulher de Ninguém
TTITLE16=Magestade o Sabiá
TTITLE17=Será que Eu Sou
TTITLE18=Nosso Filho com Quem Vai Ficar
TTITLE19=Matriz ou Filial
TTITLE20=Vida e Saudade
TTITLE21=Tenho Ciúme de Tudo
TTITLE22=Moço Pobre
TTITLE23=Adeus Amor
TTITLE24=O Homem do Campo
EXTD=
EXTT0=
EXTT1=
EXTT2=
EXTT3=
EXTT4=
EXTT5=
EXTT6=
EXTT7=
EXTT8=
EXTT9=
EXTT10=
EXTT11=
EXTT12=
EXTT13=
EXTT14=
EXTT15=
EXTT16=
EXTT17=
EXTT18=
EXTT19=
EXTT20=
EXTT21=
EXTT22=
EXTT23=
EXTT24=
PLAYORDER=
